<?xml version="1.0" encoding="UTF-8"?>
<svg version="1.1" xmlns="http://www.w3.org/2000/svg" width="32" height="32">
<path d="M0 0 C2.93423195 1.79646854 4.47205355 2.9441071 6 6 C6.92316237 14.17658103 4.48427995 20.15015953 0 27 C-2.91117834 29.80913703 -4.92389598 30.41210574 -8.9375 30.375 C-13.06433864 30.241288 -15.79840998 29.80139127 -19 27 C-21.70549545 22.42898242 -22.18428742 18.16461436 -21 13 C-15.49933134 3.69202749 -11.26638409 -1.32858303 0 0 Z M-14.41796875 8.80078125 C-16.74400878 12.15627316 -17.93527538 14.61812476 -18.625 18.6875 C-17.8083597 23.01569357 -16.59100223 24.47865801 -13 27 C-8.94882575 27.65108158 -6.85528117 27.466517 -3.25 25.5 C-0.27414425 22.19349361 0.66080826 19.22902655 2 15 C1.01 15 0.02 15 -1 15 C-1 14.01 -1 13.02 -1 12 C-0.01 12 0.98 12 2 12 C2.33 12.66 2.66 13.32 3 14 C3.40817755 9.01432906 3.40817755 9.01432906 1.4375 4.5625 C-5.04918683 0.40436742 -10.12033052 3.34289909 -14.41796875 8.80078125 Z " fill="#8A8A8A" transform="translate(24,1)"/>
<path d="M0 0 C1.98 0.495 1.98 0.495 4 1 C3.67 2.32 3.34 3.64 3 5 C1.68 4.67 0.36 4.34 -1 4 C-0.67 2.68 -0.34 1.36 0 0 Z " fill="#888888" transform="translate(17,11)"/>
<path d="M0 0 C1.32 0 2.64 0 4 0 C4 1.32 4 2.64 4 4 C2.68 4 1.36 4 0 4 C0 2.68 0 1.36 0 0 Z " fill="#888888" transform="translate(8,17)"/>
<path d="M0 0 C1.32 0 2.64 0 4 0 C4 0.99 4 1.98 4 3 C2.68 3 1.36 3 0 3 C0 2.01 0 1.02 0 0 Z " fill="#878787" transform="translate(18,5)"/>
<path d="M0 0 C0.99 0.33 1.98 0.66 3 1 C3 1.66 3 2.32 3 3 C2.01 3 1.02 3 0 3 C0 2.01 0 1.02 0 0 Z " fill="#888888" transform="translate(10,22)"/>
</svg>
